<svg width="123" height="19" viewBox="0 0 123 19" fill="none" xmlns="http://www.w3.org/2000/svg">
<path d="M2.14743 15.0085V2.40854H6.01743C8.23743 2.40854 9.86943 2.97254 10.9134 4.10054C11.9694 5.22854 12.4974 6.77654 12.4974 8.74454C12.4974 10.6765 11.9694 12.2065 10.9134 13.3345C9.86943 14.4505 8.23743 15.0085 6.01743 15.0085H2.14743ZM3.65943 13.7485H5.98143C7.20543 13.7485 8.17743 13.5505 8.89743 13.1545C9.62943 12.7465 10.1514 12.1705 10.4634 11.4265C10.7754 10.6705 10.9314 9.77654 10.9314 8.74454C10.9314 7.68854 10.7754 6.78254 10.4634 6.02654C10.1514 5.27054 9.62943 4.68854 8.89743 4.28054C8.17743 3.87254 7.20543 3.66854 5.98143 3.66854H3.65943V13.7485ZM18.6586 15.2245C17.8186 15.2245 17.0626 15.0325 16.3906 14.6485C15.7186 14.2645 15.1846 13.7245 14.7886 13.0285C14.4046 12.3205 14.2126 11.4925 14.2126 10.5445C14.2126 9.59654 14.4106 8.77454 14.8066 8.07854C15.2026 7.37054 15.7366 6.82454 16.4086 6.44054C17.0926 6.05654 17.8546 5.86454 18.6946 5.86454C19.5346 5.86454 20.2906 6.05654 20.9626 6.44054C21.6346 6.82454 22.1626 7.37054 22.5466 8.07854C22.9426 8.77454 23.1406 9.59654 23.1406 10.5445C23.1406 11.4925 22.9426 12.3205 22.5466 13.0285C22.1506 13.7245 21.6106 14.2645 20.9266 14.6485C20.2546 15.0325 19.4986 15.2245 18.6586 15.2245ZM18.6586 13.9285C19.1746 13.9285 19.6546 13.8025 20.0986 13.5505C20.5426 13.2985 20.9026 12.9205 21.1786 12.4165C21.4546 11.9125 21.5926 11.2885 21.5926 10.5445C21.5926 9.80054 21.4546 9.17654 21.1786 8.67254C20.9146 8.16854 20.5606 7.79054 20.1166 7.53854C19.6726 7.28654 19.1986 7.16054 18.6946 7.16054C18.1786 7.16054 17.6986 7.28654 17.2546 7.53854C16.8106 7.79054 16.4506 8.16854 16.1746 8.67254C15.8986 9.17654 15.7606 9.80054 15.7606 10.5445C15.7606 11.2885 15.8986 11.9125 16.1746 12.4165C16.4506 12.9205 16.8046 13.2985 17.2366 13.5505C17.6806 13.8025 18.1546 13.9285 18.6586 13.9285ZM26.709 15.0085L24.099 6.08054H25.611L27.501 13.0825L29.589 6.08054H31.299L33.405 13.0825L35.277 6.08054H36.807L34.197 15.0085H32.649L30.453 7.64654L28.257 15.0085H26.709ZM38.4793 15.0085V6.08054H39.8473L39.9373 7.68254C40.2253 7.11854 40.6393 6.67454 41.1793 6.35054C41.7193 6.02654 42.3313 5.86454 43.0153 5.86454C44.0713 5.86454 44.9113 6.18854 45.5353 6.83654C46.1713 7.47254 46.4893 8.45654 46.4893 9.78854V15.0085H44.9773V9.95054C44.9773 8.09054 44.2093 7.16054 42.6733 7.16054C41.9053 7.16054 41.2633 7.44254 40.7473 8.00654C40.2433 8.55854 39.9913 9.35054 39.9913 10.3825V15.0085H38.4793ZM48.7801 15.0085V2.04854H50.2921V15.0085H48.7801ZM56.8383 15.2245C55.9983 15.2245 55.2423 15.0325 54.5703 14.6485C53.8983 14.2645 53.3643 13.7245 52.9683 13.0285C52.5843 12.3205 52.3923 11.4925 52.3923 10.5445C52.3923 9.59654 52.5903 8.77454 52.9863 8.07854C53.3823 7.37054 53.9163 6.82454 54.5883 6.44054C55.2723 6.05654 56.0343 5.86454 56.8743 5.86454C57.7143 5.86454 58.4703 6.05654 59.1423 6.44054C59.8143 6.82454 60.3423 7.37054 60.7263 8.07854C61.1223 8.77454 61.3203 9.59654 61.3203 10.5445C61.3203 11.4925 61.1223 12.3205 60.7263 13.0285C60.3303 13.7245 59.7903 14.2645 59.1063 14.6485C58.4343 15.0325 57.6783 15.2245 56.8383 15.2245ZM56.8383 13.9285C57.3543 13.9285 57.8343 13.8025 58.2783 13.5505C58.7223 13.2985 59.0823 12.9205 59.3583 12.4165C59.6343 11.9125 59.7723 11.2885 59.7723 10.5445C59.7723 9.80054 59.6343 9.17654 59.3583 8.67254C59.0943 8.16854 58.7403 7.79054 58.2963 7.53854C57.8523 7.28654 57.3783 7.16054 56.8743 7.16054C56.3583 7.16054 55.8783 7.28654 55.4343 7.53854C54.9903 7.79054 54.6303 8.16854 54.3543 8.67254C54.0783 9.17654 53.9403 9.80054 53.9403 10.5445C53.9403 11.2885 54.0783 11.9125 54.3543 12.4165C54.6303 12.9205 54.9843 13.2985 55.4163 13.5505C55.8603 13.8025 56.3343 13.9285 56.8383 13.9285ZM66.3927 15.2245C65.6487 15.2245 65.0307 15.0985 64.5387 14.8465C64.0467 14.5945 63.6807 14.2585 63.4407 13.8385C63.2007 13.4185 63.0807 12.9625 63.0807 12.4705C63.0807 11.5585 63.4287 10.8565 64.1247 10.3645C64.8207 9.87254 65.7687 9.62654 66.9687 9.62654H69.3807V9.51854C69.3807 8.73854 69.1767 8.15054 68.7687 7.75454C68.3607 7.34654 67.8147 7.14254 67.1307 7.14254C66.5427 7.14254 66.0327 7.29254 65.6007 7.59254C65.1807 7.88054 64.9167 8.30654 64.8087 8.87054H63.2607C63.3207 8.22254 63.5367 7.67654 63.9087 7.23254C64.2927 6.78854 64.7667 6.45254 65.3307 6.22454C65.8947 5.98454 66.4947 5.86454 67.1307 5.86454C68.3787 5.86454 69.3147 6.20054 69.9387 6.87254C70.5747 7.53254 70.8927 8.41454 70.8927 9.51854V15.0085H69.5427L69.4527 13.4065C69.2007 13.9105 68.8287 14.3425 68.3367 14.7025C67.8567 15.0505 67.2087 15.2245 66.3927 15.2245ZM66.6267 13.9465C67.2027 13.9465 67.6947 13.7965 68.1027 13.4965C68.5227 13.1965 68.8407 12.8065 69.0567 12.3265C69.2727 11.8465 69.3807 11.3425 69.3807 10.8145V10.7965H67.0947C66.2067 10.7965 65.5767 10.9525 65.2047 11.2645C64.8447 11.5645 64.6647 11.9425 64.6647 12.3985C64.6647 12.8665 64.8327 13.2445 65.1687 13.5325C65.5167 13.8085 66.0027 13.9465 66.6267 13.9465ZM77.2109 15.2245C76.3229 15.2245 75.5429 15.0205 74.8709 14.6125C74.2109 14.2045 73.6949 13.6465 73.3229 12.9385C72.9629 12.2305 72.7829 11.4265 72.7829 10.5265C72.7829 9.62654 72.9689 8.82854 73.3409 8.13254C73.7129 7.42454 74.2289 6.87254 74.8889 6.47654C75.5489 6.06854 76.3289 5.86454 77.2289 5.86454C77.9609 5.86454 78.6089 6.01454 79.1729 6.31454C79.7369 6.61454 80.1749 7.03454 80.4869 7.57454V2.04854H81.9989V15.0085H80.6309L80.4869 13.5325C80.1989 13.9645 79.7849 14.3545 79.2449 14.7025C78.7049 15.0505 78.0269 15.2245 77.2109 15.2245ZM77.3729 13.9105C77.9729 13.9105 78.5009 13.7725 78.9569 13.4965C79.4249 13.2085 79.7849 12.8125 80.0369 12.3085C80.3009 11.8045 80.4329 11.2165 80.4329 10.5445C80.4329 9.87254 80.3009 9.28454 80.0369 8.78054C79.7849 8.27654 79.4249 7.88654 78.9569 7.61054C78.5009 7.32254 77.9729 7.17854 77.3729 7.17854C76.7849 7.17854 76.2569 7.32254 75.7889 7.61054C75.3329 7.88654 74.9729 8.27654 74.7089 8.78054C74.4569 9.28454 74.3309 9.87254 74.3309 10.5445C74.3309 11.2165 74.4569 11.8045 74.7089 12.3085C74.9729 12.8125 75.3329 13.2085 75.7889 13.4965C76.2569 13.7725 76.7849 13.9105 77.3729 13.9105ZM88.5254 15.0085L93.1694 2.40854H94.7714L99.3974 15.0085H97.7954L96.6434 11.7685H91.2794L90.1094 15.0085H88.5254ZM91.7294 10.5445H96.1934L93.9614 4.31654L91.7294 10.5445ZM101.18 18.9685V6.08054H102.548L102.692 7.55654C102.98 7.12454 103.388 6.73454 103.916 6.38654C104.456 6.03854 105.14 5.86454 105.968 5.86454C106.856 5.86454 107.63 6.06854 108.29 6.47654C108.95 6.88454 109.46 7.44254 109.82 8.15054C110.192 8.85854 110.378 9.66254 110.378 10.5625C110.378 11.4625 110.192 12.2665 109.82 12.9745C109.46 13.6705 108.944 14.2225 108.272 14.6305C107.612 15.0265 106.838 15.2245 105.95 15.2245C105.218 15.2245 104.564 15.0745 103.988 14.7745C103.424 14.4745 102.992 14.0545 102.692 13.5145V18.9685H101.18ZM105.788 13.9105C106.388 13.9105 106.916 13.7725 107.372 13.4965C107.828 13.2085 108.188 12.8125 108.452 12.3085C108.716 11.8045 108.848 11.2165 108.848 10.5445C108.848 9.87254 108.716 9.28454 108.452 8.78054C108.188 8.27654 107.828 7.88654 107.372 7.61054C106.916 7.32254 106.388 7.17854 105.788 7.17854C105.188 7.17854 104.66 7.32254 104.204 7.61054C103.748 7.88654 103.388 8.27654 103.124 8.78054C102.86 9.28454 102.728 9.87254 102.728 10.5445C102.728 11.2165 102.86 11.8045 103.124 12.3085C103.388 12.8125 103.748 13.2085 104.204 13.4965C104.66 13.7725 105.188 13.9105 105.788 13.9105ZM112.483 18.9685V6.08054H113.851L113.995 7.55654C114.283 7.12454 114.691 6.73454 115.219 6.38654C115.759 6.03854 116.443 5.86454 117.271 5.86454C118.159 5.86454 118.933 6.06854 119.593 6.47654C120.253 6.88454 120.763 7.44254 121.123 8.15054C121.495 8.85854 121.681 9.66254 121.681 10.5625C121.681 11.4625 121.495 12.2665 121.123 12.9745C120.763 13.6705 120.247 14.2225 119.575 14.6305C118.915 15.0265 118.141 15.2245 117.253 15.2245C116.521 15.2245 115.867 15.0745 115.291 14.7745C114.727 14.4745 114.295 14.0545 113.995 13.5145V18.9685H112.483ZM117.091 13.9105C117.691 13.9105 118.219 13.7725 118.675 13.4965C119.131 13.2085 119.491 12.8125 119.755 12.3085C120.019 11.8045 120.151 11.2165 120.151 10.5445C120.151 9.87254 120.019 9.28454 119.755 8.78054C119.491 8.27654 119.131 7.88654 118.675 7.61054C118.219 7.32254 117.691 7.17854 117.091 7.17854C116.491 7.17854 115.963 7.32254 115.507 7.61054C115.051 7.88654 114.691 8.27654 114.427 8.78054C114.163 9.28454 114.031 9.87254 114.031 10.5445C114.031 11.2165 114.163 11.8045 114.427 12.3085C114.691 12.8125 115.051 13.2085 115.507 13.4965C115.963 13.7725 116.491 13.9105 117.091 13.9105Z" fill="#333333"/>
</svg>
