<svg width="233" height="31" viewBox="0 0 233 31" fill="none" xmlns="http://www.w3.org/2000/svg">
<path d="M100.964 0.0471191H4.66728C2.53996 0.0471191 0.81543 1.72605 0.81543 3.79712V26.2971C0.81543 28.3682 2.53996 30.0471 4.66728 30.0471H100.964C103.091 30.0471 104.815 28.3682 104.815 26.2971V3.79712C104.815 1.72605 103.091 0.0471191 100.964 0.0471191Z" fill="black"/>
<path d="M100.964 0.647119C101.822 0.647119 102.645 0.978993 103.251 1.56973C103.858 2.16047 104.199 2.96169 104.199 3.79712V26.2971C104.199 27.1326 103.858 27.9338 103.251 28.5245C102.645 29.1152 101.822 29.4471 100.964 29.4471H4.66728C3.80916 29.4471 2.98618 29.1152 2.3794 28.5245C1.77261 27.9338 1.43173 27.1326 1.43173 26.2971V3.79712C1.43173 2.96169 1.77261 2.16047 2.3794 1.56973C2.98618 0.978993 3.80916 0.647119 4.66728 0.647119H100.964ZM100.964 0.0471191H4.66728C3.64571 0.0471191 2.66597 0.442207 1.94361 1.14547C1.22125 1.84873 0.81543 2.80256 0.81543 3.79712V26.2971C0.81543 27.2917 1.22125 28.2455 1.94361 28.9488C2.66597 29.652 3.64571 30.0471 4.66728 30.0471H100.964C101.985 30.0471 102.965 29.652 103.687 28.9488C104.41 28.2455 104.815 27.2917 104.815 26.2971V3.79712C104.815 2.80256 104.41 1.84873 103.687 1.14547C102.965 0.442207 101.985 0.0471191 100.964 0.0471191Z" fill="#A6A6A6"/>
<path d="M25.5541 14.5318C25.5328 12.2286 27.4912 11.1081 27.5807 11.056C26.4716 9.4817 24.7525 9.26661 24.1485 9.24946C22.7047 9.10153 21.3042 10.0905 20.5687 10.0905C19.8185 10.0905 18.6859 9.26375 17.4653 9.28804C15.8945 9.31163 14.425 10.197 13.619 11.5719C11.9558 14.3753 13.1962 18.495 14.7898 20.761C15.5869 21.8708 16.5184 23.1099 17.7376 23.0663C18.9304 23.0185 19.3759 22.326 20.8153 22.326C22.2415 22.326 22.6599 23.0663 23.9033 23.0385C25.1834 23.0185 25.9894 21.9237 26.7586 20.8039C27.6798 19.5319 28.0497 18.2792 28.0644 18.2149C28.0343 18.2049 25.5783 17.2923 25.5541 14.5318Z" fill="white"/>
<path d="M23.2053 7.75881C23.8468 6.97775 24.2858 5.91513 24.1639 4.83679C23.2354 4.87681 22.0742 5.46207 21.4055 6.22598C20.8139 6.89914 20.2854 8.00249 20.4219 9.0401C21.465 9.11584 22.5359 8.52772 23.2053 7.75881Z" fill="white"/>
<path d="M42.8156 22.9069H41.1487L40.2356 20.1135H37.0617L36.1919 22.9069H34.569L37.7135 13.397H39.6557L42.8156 22.9069ZM39.9603 18.9416L39.1345 16.4583C39.0472 16.2047 38.8835 15.6072 38.642 14.6668H38.6126C38.5165 15.0713 38.3616 15.6687 38.1488 16.4583L37.3377 18.9416H39.9603Z" fill="white"/>
<path d="M50.9021 19.3939C50.9021 20.5602 50.5784 21.482 49.931 22.1587C49.3511 22.7612 48.6311 23.062 47.7715 23.062C46.8437 23.062 46.1773 22.7376 45.7713 22.0887H45.742V25.701H44.1771V18.307C44.1771 17.5738 44.1572 16.8214 44.1191 16.0496H45.4954L45.5827 17.1365H45.6121C46.1339 16.3176 46.9259 15.9088 47.9888 15.9088C48.8197 15.9088 49.5133 16.2282 50.0683 16.8678C50.6246 17.5081 50.9021 18.3499 50.9021 19.3939ZM49.3078 19.4497C49.3078 18.7822 49.1537 18.232 48.8439 17.7989C48.5055 17.3473 48.0512 17.1215 47.4816 17.1215C47.0955 17.1215 46.7446 17.2473 46.4312 17.4952C46.1171 17.7453 45.9115 18.0719 45.8154 18.4764C45.7669 18.665 45.7427 18.8194 45.7427 18.9409V20.0842C45.7427 20.583 45.8998 21.0039 46.214 21.3477C46.5281 21.6914 46.9362 21.8629 47.4383 21.8629C48.0277 21.8629 48.4865 21.6414 48.8146 21.1997C49.1434 20.7574 49.3078 20.1743 49.3078 19.4497Z" fill="white"/>
<path d="M59.0037 19.3939C59.0037 20.5602 58.68 21.482 58.0319 22.1587C57.4528 22.7612 56.7327 23.062 55.8732 23.062C54.9454 23.062 54.2789 22.7376 53.8737 22.0887H53.8443V25.701H52.2794V18.307C52.2794 17.5738 52.2596 16.8214 52.2214 16.0496H53.5977L53.6851 17.1365H53.7144C54.2356 16.3176 55.0276 15.9088 56.0912 15.9088C56.9213 15.9088 57.615 16.2282 58.1714 16.8678C58.7255 17.5081 59.0037 18.3499 59.0037 19.3939ZM57.4094 19.4497C57.4094 18.7822 57.2546 18.232 56.9448 17.7989C56.6064 17.3473 56.1535 17.1215 55.5832 17.1215C55.1964 17.1215 54.8463 17.2473 54.5321 17.4952C54.218 17.7453 54.0132 18.0719 53.917 18.4764C53.8693 18.665 53.8443 18.8194 53.8443 18.9409V20.0842C53.8443 20.583 54.0014 21.0039 54.3141 21.3477C54.6283 21.6907 55.0364 21.8629 55.5399 21.8629C56.1293 21.8629 56.5881 21.6414 56.9162 21.1997C57.245 20.7574 57.4094 20.1743 57.4094 19.4497Z" fill="white"/>
<path d="M68.0614 20.2401C68.0614 21.049 67.7729 21.7072 67.1938 22.2153C66.5574 22.7705 65.6714 23.0478 64.533 23.0478C63.4819 23.0478 62.6392 22.8505 62.0013 22.4554L62.3639 21.1855C63.051 21.59 63.8048 21.7929 64.6262 21.7929C65.2156 21.7929 65.6744 21.6629 66.0039 21.4042C66.332 21.1455 66.4957 20.7982 66.4957 20.3651C66.4957 19.9793 66.3607 19.6541 66.0898 19.3904C65.8204 19.1267 65.3705 18.8816 64.7422 18.6551C63.0319 18.0341 62.1775 17.1244 62.1775 15.9282C62.1775 15.1464 62.477 14.5054 63.0767 14.0066C63.6742 13.5071 64.4713 13.2577 65.4681 13.2577C66.357 13.2577 67.0954 13.4085 67.6848 13.7093L67.2936 14.9513C66.7431 14.6597 66.1206 14.514 65.4241 14.514C64.8735 14.514 64.4434 14.6462 64.1351 14.9091C63.8746 15.1442 63.7439 15.4308 63.7439 15.7702C63.7439 16.1461 63.8929 16.457 64.1924 16.7014C64.453 16.9272 64.9264 17.1716 65.6134 17.4353C66.4539 17.7647 67.0712 18.1499 67.4683 18.5915C67.8639 19.0317 68.0614 19.5827 68.0614 20.2401Z" fill="white"/>
<path d="M73.2354 17.1931H71.5104V20.5224C71.5104 21.3692 71.8143 21.7922 72.4236 21.7922C72.7032 21.7922 72.9352 21.7687 73.1187 21.7215L73.162 22.8784C72.8537 22.9906 72.4478 23.0471 71.945 23.0471C71.3269 23.0471 70.844 22.8634 70.4953 22.4968C70.1481 22.1295 69.9734 21.5136 69.9734 20.6482V17.1916H68.9458V16.0483H69.9734V14.7927L71.5104 14.3411V16.0483H73.2354V17.1931Z" fill="white"/>
<path d="M81.018 19.422C81.018 20.476 80.7083 21.3414 80.0902 22.0181C79.4421 22.7149 78.5818 23.0621 77.5094 23.0621C76.4759 23.0621 75.6531 22.7284 75.0395 22.061C74.4258 21.3935 74.119 20.551 74.119 19.5356C74.119 18.473 74.4346 17.6026 75.0681 16.9258C75.7001 16.2484 76.553 15.9097 77.6254 15.9097C78.6589 15.9097 79.4905 16.2434 80.1181 16.9115C80.7185 17.5597 81.018 18.3965 81.018 19.422ZM79.3944 19.4713C79.3944 18.8388 79.2556 18.2964 78.9745 17.8441C78.6464 17.2967 78.1774 17.0237 77.5696 17.0237C76.9406 17.0237 76.4627 17.2974 76.1346 17.8441C75.8535 18.2972 75.7148 18.8481 75.7148 19.4998C75.7148 20.1323 75.8535 20.6747 76.1346 21.1263C76.473 21.6737 76.9457 21.9467 77.5557 21.9467C78.1532 21.9467 78.6222 21.668 78.9606 21.112C79.249 20.6511 79.3944 20.103 79.3944 19.4713Z" fill="white"/>
<path d="M86.1045 17.3895C85.9497 17.3616 85.7845 17.3473 85.6113 17.3473C85.0608 17.3473 84.635 17.5495 84.3356 17.9547C84.075 18.312 83.9443 18.7637 83.9443 19.3089V22.9069H82.3802L82.3948 18.2091C82.3948 17.4188 82.375 16.6992 82.3361 16.0503H83.6992L83.7564 17.3623H83.7997C83.9649 16.9114 84.2255 16.5484 84.5822 16.2761C84.9309 16.031 85.3074 15.9088 85.7133 15.9088C85.8579 15.9088 85.9886 15.9188 86.1045 15.9367V17.3895Z" fill="white"/>
<path d="M93.1033 19.1539C93.1033 19.4269 93.085 19.657 93.0461 19.8449H88.3513C88.3696 20.5223 88.5965 21.0404 89.0325 21.3977C89.4281 21.7172 89.9397 21.8772 90.568 21.8772C91.2631 21.8772 91.8973 21.7693 92.4676 21.5528L92.7128 22.6104C92.0463 22.8934 91.2595 23.0342 90.3515 23.0342C89.2593 23.0342 88.4019 22.7212 87.778 22.0959C87.1556 21.4706 86.8436 20.631 86.8436 19.5776C86.8436 18.5436 87.1336 17.6825 87.7142 16.9958C88.3219 16.2626 89.1433 15.896 90.1768 15.896C91.1919 15.896 91.9604 16.2626 92.4823 16.9958C92.8956 17.5782 93.1033 18.2985 93.1033 19.1539ZM91.6111 18.7587C91.6213 18.3071 91.5193 17.9169 91.3072 17.5875C91.0363 17.1637 90.6201 16.9522 90.0601 16.9522C89.5485 16.9522 89.1323 17.1587 88.8145 17.5732C88.5539 17.9026 88.399 18.2978 88.3513 18.758H91.6111V18.7587Z" fill="white"/>
<path d="M39.4429 7.54667C39.4429 8.38776 39.1838 9.0209 38.6664 9.44609C38.187 9.83841 37.5059 10.0349 36.6236 10.0349C36.1861 10.0349 35.8118 10.0163 35.4984 9.97919V5.38356C35.9072 5.31925 36.3476 5.28638 36.8232 5.28638C37.6637 5.28638 38.2971 5.46431 38.7243 5.82019C39.2029 6.22251 39.4429 6.79777 39.4429 7.54667ZM38.6319 7.56739C38.6319 7.02215 38.4836 6.60411 38.187 6.31255C37.8905 6.0217 37.4574 5.87593 36.8871 5.87593C36.6449 5.87593 36.4386 5.89165 36.2676 5.92452V9.41822C36.3623 9.43251 36.5355 9.43894 36.7873 9.43894C37.376 9.43894 37.8303 9.27959 38.1503 8.96087C38.4704 8.64216 38.6319 8.17767 38.6319 7.56739Z" fill="white"/>
<path d="M43.7435 8.28121C43.7435 8.7993 43.5915 9.22377 43.2877 9.55678C42.9691 9.89907 42.5471 10.0699 42.02 10.0699C41.5121 10.0699 41.1077 9.90622 40.806 9.5775C40.505 9.2495 40.3546 8.83574 40.3546 8.33695C40.3546 7.81529 40.5094 7.38724 40.8207 7.05495C41.1319 6.72266 41.5503 6.55615 42.0773 6.55615C42.5852 6.55615 42.9933 6.7198 43.3023 7.0478C43.596 7.36651 43.7435 7.77813 43.7435 8.28121ZM42.9456 8.3055C42.9456 7.99465 42.8766 7.7281 42.7394 7.50586C42.5779 7.23717 42.3481 7.10282 42.0494 7.10282C41.7404 7.10282 41.5055 7.23717 41.344 7.50586C41.206 7.7281 41.1377 7.99894 41.1377 8.31908C41.1377 8.62994 41.2067 8.89648 41.344 9.11872C41.5106 9.38742 41.7426 9.52176 42.042 9.52176C42.3357 9.52176 42.5661 9.38527 42.732 9.11158C42.8744 8.88505 42.9456 8.61636 42.9456 8.3055Z" fill="white"/>
<path d="M49.51 6.62476L48.4273 9.9934H47.7226L47.2741 8.53061C47.1604 8.16544 47.0679 7.80242 46.996 7.44226H46.982C46.9152 7.81243 46.8227 8.17473 46.7038 8.53061L46.2274 9.9934H45.5147L44.4966 6.62476H45.2872L45.6784 8.22619C45.7731 8.60493 45.8509 8.9658 45.9133 9.30738H45.9272C45.9845 9.02583 46.0792 8.6671 46.2128 8.23333L46.7038 6.62547H47.3307L47.8012 8.19903C47.9149 8.58277 48.0074 8.95222 48.0786 9.3081H48.0999C48.152 8.96151 48.2306 8.59206 48.3348 8.19903L48.7547 6.62547H49.51V6.62476Z" fill="white"/>
<path d="M53.498 9.99347H52.7288V8.06404C52.7288 7.46949 52.4968 7.17221 52.0315 7.17221C51.8032 7.17221 51.619 7.25368 51.4758 7.41732C51.3342 7.58096 51.2622 7.77391 51.2622 7.99472V9.99275H50.493V7.5874C50.493 7.29155 50.4834 6.97069 50.4651 6.62339H51.1411L51.1771 7.15006H51.1984C51.2879 6.98641 51.4215 6.85135 51.5969 6.74345C51.8054 6.61768 52.0388 6.55408 52.2942 6.55408C52.6172 6.55408 52.8859 6.65555 53.0995 6.85921C53.3652 7.10861 53.498 7.48092 53.498 7.97543V9.99347Z" fill="white"/>
<path d="M55.6191 9.99344H54.8506V5.0791H55.6191V9.99344Z" fill="white"/>
<path d="M60.1481 8.28121C60.1481 8.7993 59.9962 9.22377 59.6923 9.55678C59.3737 9.89907 58.9509 10.0699 58.4246 10.0699C57.916 10.0699 57.5115 9.90622 57.2106 9.5775C56.9096 9.2495 56.7592 8.83574 56.7592 8.33695C56.7592 7.81529 56.914 7.38724 57.2253 7.05495C57.5365 6.72266 57.9549 6.55615 58.4812 6.55615C58.9898 6.55615 59.3972 6.7198 59.707 7.0478C60.0006 7.36651 60.1481 7.77813 60.1481 8.28121ZM59.3495 8.3055C59.3495 7.99465 59.2805 7.7281 59.1432 7.50586C58.9825 7.23717 58.752 7.10282 58.454 7.10282C58.1442 7.10282 57.9094 7.23717 57.7486 7.50586C57.6106 7.7281 57.5423 7.99894 57.5423 8.31908C57.5423 8.62994 57.6113 8.89648 57.7486 9.11872C57.9152 9.38742 58.1472 9.52176 58.4467 9.52176C58.7403 9.52176 58.97 9.38527 59.1359 9.11158C59.279 8.88505 59.3495 8.61636 59.3495 8.3055Z" fill="white"/>
<path d="M63.8711 9.9934H63.1804L63.1231 9.60537H63.1018C62.8655 9.91479 62.5286 10.0699 62.0911 10.0699C61.7645 10.0699 61.5002 9.96767 61.3013 9.76473C61.1207 9.58036 61.0305 9.35097 61.0305 9.07871C61.0305 8.66709 61.2066 8.35338 61.5611 8.13614C61.9149 7.9189 62.4126 7.81243 63.0534 7.81743V7.75454C63.0534 7.31077 62.8141 7.08925 62.3348 7.08925C61.9935 7.08925 61.6925 7.17286 61.4327 7.33864L61.2764 6.847C61.5978 6.65334 61.995 6.55615 62.4633 6.55615C63.3676 6.55615 63.8212 7.02065 63.8212 7.94963V9.19019C63.8212 9.52676 63.8381 9.79474 63.8711 9.9934ZM63.0725 8.83574V8.31622C62.224 8.30193 61.7997 8.52846 61.7997 8.9951C61.7997 9.17089 61.8481 9.30238 61.9472 9.39027C62.0463 9.47817 62.1726 9.52176 62.3231 9.52176C62.4919 9.52176 62.6497 9.4696 62.7936 9.36598C62.9382 9.26165 63.027 9.12944 63.06 8.96723C63.0681 8.93078 63.0725 8.88648 63.0725 8.83574Z" fill="white"/>
<path d="M68.2417 9.99344H67.5591L67.5231 9.45248H67.5018C67.2838 9.8641 66.9124 10.0699 66.3905 10.0699C65.9736 10.0699 65.6264 9.91054 65.3512 9.59183C65.0759 9.27312 64.9387 8.85936 64.9387 8.35128C64.9387 7.80603 65.0877 7.36441 65.3871 7.02711C65.6771 6.71269 66.0323 6.55547 66.4551 6.55547C66.9198 6.55547 67.2449 6.70769 67.4299 7.01282H67.4446V5.0791H68.2146V9.08589C68.2146 9.41389 68.2234 9.71617 68.2417 9.99344ZM67.4446 8.5728V8.01113C67.4446 7.91394 67.4372 7.83533 67.4233 7.77531C67.38 7.59523 67.2868 7.44373 67.1451 7.32153C67.002 7.19933 66.8295 7.13788 66.6306 7.13788C66.3436 7.13788 66.119 7.24864 65.9538 7.47088C65.7901 7.69313 65.7072 7.97682 65.7072 8.32341C65.7072 8.65641 65.7857 8.92653 65.9435 9.13448C66.1101 9.35601 66.3348 9.46678 66.6159 9.46678C66.8684 9.46678 67.0702 9.37459 67.2236 9.18951C67.3719 9.01872 67.4446 8.81291 67.4446 8.5728Z" fill="white"/>
<path d="M74.8209 8.28121C74.8209 8.7993 74.6689 9.22377 74.3651 9.55678C74.0465 9.89907 73.6252 10.0699 73.0974 10.0699C72.5902 10.0699 72.1858 9.90622 71.8834 9.5775C71.5824 9.2495 71.4319 8.83574 71.4319 8.33695C71.4319 7.81529 71.5868 7.38724 71.898 7.05495C72.2093 6.72266 72.6277 6.55615 73.1554 6.55615C73.6626 6.55615 74.0715 6.7198 74.3797 7.0478C74.6733 7.36651 74.8209 7.77813 74.8209 8.28121ZM74.0237 8.3055C74.0237 7.99465 73.9547 7.7281 73.8175 7.50586C73.6553 7.23717 73.4263 7.10282 73.1268 7.10282C72.8185 7.10282 72.5836 7.23717 72.4214 7.50586C72.2834 7.7281 72.2151 7.99894 72.2151 8.31908C72.2151 8.62994 72.2841 8.89648 72.4214 9.11872C72.588 9.38742 72.82 9.52176 73.1194 9.52176C73.413 9.52176 73.6443 9.38527 73.8102 9.11158C73.9518 8.88505 74.0237 8.61636 74.0237 8.3055Z" fill="white"/>
<path d="M78.957 9.99347H78.1884V8.06404C78.1884 7.46949 77.9565 7.17221 77.4904 7.17221C77.2621 7.17221 77.0779 7.25368 76.9355 7.41732C76.7931 7.58096 76.7219 7.77391 76.7219 7.99472V9.99275H75.9519V7.5874C75.9519 7.29155 75.9431 6.97069 75.9247 6.62339H76.6L76.636 7.15006H76.6573C76.7476 6.98641 76.8812 6.85135 77.0559 6.74345C77.2651 6.61768 77.4977 6.55408 77.7539 6.55408C78.0761 6.55408 78.3448 6.65555 78.5584 6.85921C78.8248 7.10861 78.957 7.48092 78.957 7.97543V9.99347Z" fill="white"/>
<path d="M84.1338 7.1858H83.2868V8.82224C83.2868 9.23814 83.4373 9.44609 83.7353 9.44609C83.8733 9.44609 83.9878 9.43466 84.0781 9.41108L84.0979 9.97919C83.9459 10.0349 83.7463 10.0628 83.5004 10.0628C83.1965 10.0628 82.9601 9.97276 82.7891 9.79268C82.6174 9.6126 82.5322 9.3096 82.5322 8.88441V7.1858H82.0265V6.62483H82.5322V6.00742L83.2861 5.78589V6.62412H84.1331V7.1858H84.1338Z" fill="white"/>
<path d="M88.2065 9.99344H87.4365V8.0783C87.4365 7.47446 87.2045 7.17218 86.7399 7.17218C86.3832 7.17218 86.1395 7.34726 86.0059 7.69741C85.9831 7.77102 85.9699 7.86106 85.9699 7.96682V9.99272H85.2014V5.0791H85.9699V7.10929H85.9846C86.2268 6.73984 86.574 6.55547 87.024 6.55547C87.3425 6.55547 87.606 6.65695 87.8152 6.86061C88.0758 7.1143 88.2065 7.49161 88.2065 7.9904V9.99344Z" fill="white"/>
<path d="M92.4072 8.14968C92.4072 8.28403 92.397 8.39694 92.3786 8.48912H90.0716C90.0819 8.82213 90.192 9.07581 90.4056 9.2516C90.6008 9.40882 90.8526 9.48742 91.1609 9.48742C91.5022 9.48742 91.8134 9.43454 92.0938 9.32807L92.2142 9.8483C91.8861 9.98693 91.5 10.0562 91.053 10.0562C90.5172 10.0562 90.0951 9.90261 89.7898 9.59533C89.4829 9.28805 89.331 8.87572 89.331 8.35835C89.331 7.85026 89.4727 7.42722 89.7582 7.08992C90.0562 6.72976 90.4592 6.54968 90.9678 6.54968C91.4655 6.54968 91.8435 6.72976 92.099 7.08992C92.3052 7.37577 92.4072 7.72949 92.4072 8.14968ZM91.6732 7.95602C91.6791 7.73378 91.6285 7.54227 91.5242 7.38077C91.3906 7.17282 91.1873 7.06849 90.9121 7.06849C90.661 7.06849 90.4562 7.16996 90.2999 7.37362C90.1722 7.53584 90.0966 7.72949 90.0716 7.95602H91.6732Z" fill="white"/>
<path d="M228.964 0.0471191H132.667C130.54 0.0471191 128.815 1.72605 128.815 3.79712V26.2971C128.815 28.3682 130.54 30.0471 132.667 30.0471H228.964C231.091 30.0471 232.815 28.3682 232.815 26.2971V3.79712C232.815 1.72605 231.091 0.0471191 228.964 0.0471191Z" fill="black"/>
<path d="M228.964 0.647119C229.822 0.647119 230.645 0.978993 231.251 1.56973C231.858 2.16047 232.199 2.96169 232.199 3.79712V26.2971C232.199 27.1326 231.858 27.9338 231.251 28.5245C230.645 29.1152 229.822 29.4471 228.964 29.4471H132.667C131.809 29.4471 130.986 29.1152 130.379 28.5245C129.773 27.9338 129.432 27.1326 129.432 26.2971V3.79712C129.432 2.96169 129.773 2.16047 130.379 1.56973C130.986 0.978993 131.809 0.647119 132.667 0.647119H228.964ZM228.964 0.0471191H132.667C131.646 0.0471191 130.666 0.442207 129.944 1.14547C129.221 1.84873 128.815 2.80256 128.815 3.79712V26.2971C128.815 27.2917 129.221 28.2455 129.944 28.9488C130.666 29.652 131.646 30.0471 132.667 30.0471H228.964C229.985 30.0471 230.965 29.652 231.687 28.9488C232.41 28.2455 232.815 27.2917 232.815 26.2971V3.79712C232.815 2.80256 232.41 1.84873 231.687 1.14547C230.965 0.442207 229.985 0.0471191 228.964 0.0471191Z" fill="#A6A6A6"/>
<path d="M181.308 16.3597C180.662 16.3627 180.03 16.5521 179.494 16.9042C178.957 17.2562 178.54 17.7551 178.295 18.3378C178.049 18.9205 177.986 19.5609 178.115 20.1782C178.243 20.7955 178.556 21.3621 179.014 21.8064C179.473 22.2506 180.056 22.5527 180.691 22.6745C181.325 22.7963 181.983 22.7323 182.58 22.4906C183.178 22.2489 183.688 21.8404 184.047 21.3165C184.406 20.7927 184.598 20.177 184.598 19.5472C184.604 19.1257 184.523 18.7072 184.36 18.3167C184.197 17.9262 183.954 17.5717 183.647 17.2743C183.341 16.9769 182.975 16.7427 182.573 16.5856C182.172 16.4284 181.741 16.3516 181.308 16.3597ZM181.308 21.4822C180.911 21.5093 180.514 21.4192 180.169 21.2237C179.824 21.0283 179.548 20.7364 179.376 20.386C179.204 20.0357 179.145 19.6431 179.205 19.2593C179.265 18.8755 179.443 18.5183 179.714 18.234C179.986 17.9497 180.339 17.7516 180.728 17.6653C181.117 17.579 181.523 17.6086 181.895 17.7503C182.266 17.8919 182.585 18.139 182.81 18.4595C183.035 18.78 183.156 19.1589 183.157 19.5472C183.17 19.7932 183.131 20.0392 183.045 20.2705C182.958 20.5019 182.824 20.714 182.652 20.8943C182.48 21.0747 182.272 21.2196 182.041 21.3206C181.811 21.4215 181.561 21.4765 181.308 21.4822ZM174.136 16.3597C173.489 16.3612 172.857 16.5494 172.319 16.9005C171.782 17.2517 171.364 17.75 171.117 18.3326C170.87 18.9152 170.807 19.5558 170.934 20.1736C171.061 20.7915 171.373 21.3587 171.832 21.8037C172.29 22.2488 172.873 22.5516 173.508 22.674C174.143 22.7964 174.801 22.7328 175.399 22.4913C175.996 22.2499 176.507 21.8413 176.867 21.3173C177.226 20.7933 177.418 20.1773 177.418 19.5472C177.424 19.1257 177.343 18.7072 177.18 18.3167C177.017 17.9262 176.775 17.5717 176.468 17.2743C176.161 16.9769 175.795 16.7427 175.394 16.5856C174.992 16.4284 174.562 16.3516 174.129 16.3597H174.136ZM174.136 21.4822C173.738 21.5108 173.341 21.4221 172.995 21.2276C172.65 21.0331 172.372 20.7419 172.199 20.3918C172.026 20.0417 171.965 19.6489 172.024 19.2647C172.084 18.8805 172.261 18.5225 172.532 18.2375C172.803 17.9524 173.156 17.7535 173.545 17.6665C173.934 17.5796 174.341 17.6087 174.713 17.75C175.085 17.8913 175.404 18.1383 175.63 18.4589C175.855 18.7794 175.976 19.1587 175.977 19.5472C175.99 19.7932 175.952 20.0392 175.865 20.2705C175.778 20.5019 175.644 20.714 175.472 20.8943C175.3 21.0747 175.092 21.2196 174.861 21.3206C174.631 21.4215 174.381 21.4765 174.129 21.4822H174.136ZM165.593 17.3422V18.6922H168.921C168.869 19.3281 168.597 19.9281 168.15 20.3947C167.818 20.7249 167.417 20.9835 166.975 21.154C166.534 21.3246 166.06 21.4031 165.585 21.3847C164.604 21.3847 163.664 21.0054 162.97 20.3303C162.277 19.6552 161.887 18.7395 161.887 17.7847C161.887 16.8299 162.277 15.9143 162.97 15.2391C163.664 14.564 164.604 14.1847 165.585 14.1847C166.523 14.1698 167.429 14.5177 168.104 15.1522L169.083 14.1997C168.627 13.7505 168.083 13.3949 167.484 13.154C166.884 12.913 166.241 12.7917 165.593 12.7972C164.908 12.7713 164.225 12.8802 163.584 13.1174C162.944 13.3547 162.359 13.7154 161.865 14.178C161.371 14.6405 160.978 15.1954 160.709 15.8094C160.441 16.4233 160.303 17.0837 160.303 17.751C160.303 18.4182 160.441 19.0786 160.709 19.6926C160.978 20.3065 161.371 20.8614 161.865 21.324C162.359 21.7865 162.944 22.1472 163.584 22.3845C164.225 22.6217 164.908 22.7307 165.593 22.7047C166.252 22.7337 166.91 22.6249 167.523 22.3856C168.136 22.1462 168.688 21.7819 169.144 21.3172C169.951 20.4539 170.382 19.319 170.346 18.1522C170.349 17.8679 170.323 17.5841 170.269 17.3047L165.593 17.3422ZM200.498 18.3922C200.297 17.8168 199.922 17.3143 199.421 16.9513C198.92 16.5884 198.318 16.3821 197.694 16.3597C197.273 16.3589 196.856 16.4423 196.469 16.6046C196.082 16.767 195.733 17.0049 195.444 17.3036C195.155 17.6024 194.933 17.9556 194.79 18.3415C194.647 18.7274 194.586 19.1378 194.613 19.5472C194.603 19.9664 194.681 20.3831 194.841 20.7725C195 21.1618 195.239 21.5159 195.543 21.8134C195.846 22.1109 196.208 22.3458 196.607 22.5041C197.006 22.6624 197.433 22.7409 197.864 22.7347C198.403 22.7375 198.934 22.6102 199.41 22.3641C199.886 22.1181 200.291 21.7609 200.591 21.3247L199.474 20.5747C199.307 20.8453 199.071 21.0691 198.789 21.2242C198.507 21.3794 198.188 21.4605 197.864 21.4597C197.53 21.4721 197.2 21.3864 196.917 21.2139C196.634 21.0413 196.411 20.7899 196.277 20.4922L200.66 18.7297L200.498 18.3922ZM196.03 19.4572C196.015 19.2252 196.047 18.9925 196.125 18.7728C196.202 18.553 196.325 18.3506 196.484 18.1774C196.643 18.0042 196.836 17.8636 197.052 17.764C197.268 17.6644 197.502 17.6077 197.74 17.5972C197.989 17.5813 198.237 17.6367 198.453 17.7567C198.67 17.8767 198.845 18.056 198.958 18.2722L196.03 19.4572ZM192.471 22.5472H193.912V13.1722H192.471V22.5472ZM190.114 17.0722H190.06C189.843 16.8359 189.577 16.6469 189.279 16.5176C188.982 16.3884 188.66 16.3218 188.334 16.3222C187.492 16.362 186.698 16.7155 186.117 17.3096C185.536 17.9038 185.211 18.6929 185.211 19.5135C185.211 20.334 185.536 21.1231 186.117 21.7173C186.698 22.3114 187.492 22.665 188.334 22.7047C188.661 22.7101 188.984 22.6457 189.282 22.5161C189.581 22.3865 189.846 22.1949 190.06 21.9547H190.106V22.4122C190.106 23.6347 189.436 24.2872 188.357 24.2872C187.998 24.279 187.649 24.167 187.356 23.9653C187.062 23.7636 186.837 23.4814 186.709 23.1547L185.453 23.6647C185.689 24.2245 186.092 24.7027 186.61 25.0381C187.127 25.3736 187.736 25.5508 188.357 25.5472C190.044 25.5472 191.439 24.5797 191.439 22.2247V16.5472H190.114V17.0722ZM188.465 21.4822C187.968 21.4396 187.506 21.2173 187.169 20.8591C186.832 20.5009 186.645 20.0329 186.645 19.5472C186.645 19.0615 186.832 18.5935 187.169 18.2353C187.506 17.8772 187.968 17.6548 188.465 17.6122C188.712 17.6245 188.953 17.6847 189.175 17.7892C189.397 17.8938 189.596 18.0405 189.758 18.2208C189.921 18.4012 190.046 18.6114 190.124 18.8392C190.202 19.067 190.233 19.3077 190.214 19.5472C190.235 19.7877 190.206 20.0299 190.128 20.2591C190.05 20.4882 189.925 20.6997 189.761 20.8805C189.597 21.0614 189.397 21.208 189.172 21.3114C188.948 21.4148 188.705 21.4729 188.457 21.4822H188.465ZM207.247 13.1722H203.803V22.5472H205.244V18.9922H207.254C207.665 19.0209 208.077 18.967 208.465 18.8338C208.854 18.7005 209.21 18.4909 209.511 18.2178C209.812 17.9448 210.053 17.6143 210.217 17.2468C210.381 16.8794 210.466 16.483 210.466 16.0822C210.466 15.6815 210.381 15.285 210.217 14.9176C210.053 14.5502 209.812 14.2196 209.511 13.9466C209.21 13.6736 208.854 13.4639 208.465 13.3307C208.077 13.1974 207.665 13.1435 207.254 13.1722H207.247ZM207.247 17.6722H205.236V14.4772H207.278C207.716 14.4772 208.136 14.6467 208.446 14.9484C208.756 15.2501 208.93 15.6593 208.93 16.086C208.93 16.5126 208.756 16.9218 208.446 17.2235C208.136 17.5252 207.716 17.6947 207.278 17.6947L207.247 17.6722ZM216.129 16.3222C215.605 16.2917 215.082 16.411 214.627 16.6655C214.171 16.92 213.802 17.2986 213.564 17.7547L214.843 18.2722C214.969 18.046 215.16 17.8603 215.392 17.7378C215.625 17.6153 215.889 17.5612 216.152 17.5822C216.335 17.5614 216.52 17.5763 216.697 17.6259C216.874 17.6756 217.039 17.7591 217.183 17.8715C217.326 17.9839 217.445 18.123 217.533 18.2806C217.62 18.4383 217.675 18.6113 217.693 18.7897V18.8872C217.23 18.6487 216.714 18.5251 216.191 18.5272C214.812 18.5272 213.417 19.2772 213.417 20.6347C213.431 20.9242 213.504 21.208 213.632 21.4695C213.761 21.731 213.941 21.9648 214.164 22.1571C214.387 22.3493 214.647 22.4962 214.929 22.589C215.211 22.6818 215.509 22.7186 215.806 22.6972C216.168 22.7226 216.531 22.6524 216.857 22.494C217.182 22.3357 217.458 22.095 217.654 21.7972H217.701V22.5472H219.087V18.9397C219.087 17.2972 217.809 16.3447 216.168 16.3447L216.129 16.3222ZM215.952 21.4597C215.482 21.4597 214.827 21.2272 214.827 20.6647C214.827 19.9147 215.644 19.6672 216.368 19.6672C216.826 19.6562 217.278 19.765 217.678 19.9822C217.629 20.3883 217.432 20.7637 217.122 21.0393C216.812 21.315 216.41 21.4722 215.99 21.4822L215.952 21.4597ZM224.141 16.5472L222.492 20.6122H222.446L220.736 16.5472H219.195L221.761 22.2322L220.297 25.3897H221.799L225.743 16.5472H224.141ZM211.191 22.5472H212.632V13.1722H211.191V22.5472Z" fill="white"/>
<path d="M165.298 7.77402C165.311 8.04911 165.267 8.32393 165.168 8.58178C165.068 8.83963 164.916 9.07514 164.721 9.27402C164.502 9.49497 164.238 9.6686 163.946 9.78362C163.654 9.89863 163.341 9.95243 163.026 9.94152C162.548 9.93788 162.082 9.79709 161.686 9.53678C161.291 9.27648 160.982 8.90824 160.801 8.47821C160.619 8.04817 160.571 7.57547 160.664 7.11934C160.757 6.6632 160.987 6.24392 161.323 5.91402C161.544 5.69411 161.81 5.52074 162.103 5.40463C162.395 5.28853 162.71 5.23216 163.026 5.23902C163.351 5.23797 163.674 5.30177 163.973 5.42652C164.252 5.53599 164.5 5.70819 164.697 5.92902L164.289 6.32652C164.135 6.14847 163.941 6.00767 163.722 5.91525C163.503 5.82283 163.264 5.78133 163.026 5.79402C162.785 5.79287 162.547 5.83904 162.325 5.92976C162.103 6.02048 161.902 6.15389 161.735 6.32198C161.567 6.49006 161.436 6.68937 161.349 6.90796C161.263 7.12654 161.222 7.35989 161.231 7.59402C161.226 7.94362 161.327 8.28685 161.522 8.5804C161.717 8.87395 161.997 9.10467 162.327 9.24347C162.657 9.38226 163.021 9.4229 163.374 9.36026C163.728 9.29763 164.054 9.13452 164.312 8.89152C164.549 8.64142 164.686 8.31665 164.697 7.97652H163.026V7.43652H165.268C165.288 7.54791 165.298 7.66085 165.298 7.77402ZM168.827 5.89902H166.747V7.32402H168.642V7.86402H166.747V9.28902H168.827V9.84402H166.13V5.34402H168.827V5.89902ZM171.353 9.84402H170.76V5.89902H169.466V5.34402H172.678V5.89902H171.353V9.84402ZM174.943 9.84402V5.34402H175.537V9.84402H174.943ZM178.171 9.84402H177.578V5.89902H176.284V5.34402H179.458V5.89902H178.171V9.84402ZM185.474 9.25902C185.024 9.69503 184.415 9.93977 183.78 9.93977C183.144 9.93977 182.535 9.69503 182.085 9.25902C181.647 8.80791 181.403 8.21085 181.403 7.59027C181.403 6.96969 181.647 6.37263 182.085 5.92152C182.307 5.70383 182.571 5.53105 182.862 5.41315C183.152 5.29525 183.464 5.23455 183.78 5.23455C184.095 5.23455 184.407 5.29525 184.697 5.41315C184.988 5.53105 185.252 5.70383 185.474 5.92152C185.914 6.37177 186.159 6.96916 186.159 7.59027C186.159 8.21139 185.914 8.80878 185.474 9.25902ZM182.524 8.88402C182.857 9.20736 183.309 9.3889 183.78 9.3889C184.25 9.3889 184.702 9.20736 185.035 8.88402C185.364 8.53079 185.547 8.07094 185.547 7.59402C185.547 7.1171 185.364 6.65726 185.035 6.30402C184.702 5.98068 184.25 5.79914 183.78 5.79914C183.309 5.79914 182.857 5.98068 182.524 6.30402C182.195 6.65726 182.012 7.1171 182.012 7.59402C182.012 8.07094 182.195 8.53079 182.524 8.88402ZM186.992 9.84402V5.34402H187.716L189.966 8.84652V5.34402H190.559V9.84402H189.942L187.593 6.17652V9.84402H186.992Z" fill="white"/>
<path fill-rule="evenodd" clip-rule="evenodd" d="M183.78 5.30955C183.475 5.30955 183.173 5.36829 182.891 5.48239C182.61 5.59637 182.355 5.76334 182.14 5.9737C181.716 6.41081 181.48 6.98916 181.48 7.59027C181.48 8.19131 181.716 8.76959 182.14 9.20667C182.576 9.62819 183.165 9.86478 183.78 9.86478C184.394 9.86478 184.983 9.62815 185.419 9.20658C185.845 8.77036 186.082 8.1918 186.082 7.59027C186.082 6.98867 185.845 6.41004 185.419 5.9738C185.204 5.76339 184.949 5.59639 184.668 5.48239C184.386 5.36829 184.084 5.30955 183.78 5.30955ZM182.832 5.34391C183.132 5.2222 183.454 5.15955 183.78 5.15955C184.105 5.15955 184.427 5.2222 184.727 5.34391C185.027 5.46562 185.3 5.64397 185.529 5.86868L185.53 5.86985C185.983 6.33403 186.236 6.94993 186.236 7.59027C186.236 8.23062 185.983 8.8465 185.53 9.31069L185.529 9.31222C185.064 9.76221 184.435 10.0148 183.78 10.0148C183.124 10.0148 182.495 9.76219 182.03 9.3122L182.029 9.31055C181.577 8.84552 181.326 8.23001 181.326 7.59027C181.326 6.95054 181.577 6.33505 182.029 5.87002L182.03 5.86867C182.259 5.64395 182.532 5.46562 182.832 5.34391ZM163.024 5.314C162.718 5.30737 162.415 5.36186 162.132 5.47409C161.849 5.58633 161.592 5.75392 161.378 5.9665L161.378 5.96688C161.052 6.28631 160.83 6.69228 160.74 7.13393C160.65 7.57559 160.696 8.03328 160.872 8.44966C161.048 8.86604 161.346 9.22259 161.729 9.47464C162.113 9.72668 162.564 9.863 163.026 9.86652L163.028 9.86654C163.332 9.87708 163.635 9.82515 163.917 9.71409C164.199 9.60304 164.454 9.4354 164.665 9.22208C164.853 9.03056 165 8.80376 165.096 8.55544C165.191 8.30711 165.234 8.04243 165.221 7.77749L165.298 7.77402L165.221 7.77399C165.221 7.68614 165.215 7.59842 165.202 7.51152H163.103V7.90152H164.777L164.774 7.97897C164.762 8.33709 164.618 8.67905 164.369 8.94238L164.366 8.94553C164.097 9.19883 163.756 9.36876 163.388 9.43405C163.02 9.49934 162.64 9.45698 162.296 9.3123C161.953 9.16763 161.661 8.92713 161.458 8.62114C161.255 8.31566 161.149 7.95857 161.154 7.59479C161.145 7.35118 161.187 7.10841 161.278 6.88097C161.368 6.65297 161.505 6.44507 161.679 6.26973C161.854 6.0944 162.064 5.95525 162.295 5.86061C162.526 5.76627 162.774 5.71812 163.024 5.71901C163.274 5.70607 163.523 5.74968 163.753 5.84642C163.957 5.93264 164.141 6.05895 164.293 6.21717L164.591 5.92642C164.41 5.73932 164.19 5.59239 163.944 5.49608L163.943 5.49549C163.653 5.37476 163.341 5.313 163.026 5.31402L163.024 5.314ZM165.375 7.7723C165.389 8.05696 165.343 8.34129 165.24 8.60811C165.137 8.87548 164.979 9.11968 164.776 9.3259C164.55 9.55444 164.277 9.73418 163.975 9.85314C163.673 9.97198 163.349 10.0276 163.024 10.0165C162.532 10.0126 162.051 9.86731 161.643 9.59893C161.235 9.33036 160.917 8.95043 160.729 8.50675C160.542 8.06307 160.493 7.57536 160.589 7.10474C160.685 6.63421 160.921 6.20169 161.268 5.86135C161.497 5.6342 161.771 5.45511 162.074 5.33517C162.376 5.21532 162.7 5.15707 163.026 5.16402C163.362 5.16306 163.694 5.22882 164.003 5.35726C164.293 5.47117 164.551 5.65024 164.756 5.87981L164.803 5.9326L164.284 6.43737L164.23 6.37478C164.084 6.20563 163.9 6.07187 163.691 5.98408C163.483 5.89628 163.257 5.85685 163.03 5.86891L163.025 5.86915C162.795 5.86805 162.567 5.9121 162.355 5.99891C162.142 6.08572 161.95 6.21338 161.79 6.37422C161.629 6.53506 161.504 6.72578 161.421 6.93494C161.338 7.1441 161.3 7.3674 161.308 7.59143L161.308 7.59508C161.303 7.92986 161.4 8.25854 161.587 8.53966C161.774 8.82077 162.042 9.04172 162.358 9.17463C162.673 9.30754 163.022 9.34646 163.361 9.28648C163.698 9.22662 164.01 9.07097 164.257 8.83909C164.463 8.62152 164.588 8.34454 164.616 8.05152H162.949V7.36152H165.332L165.343 7.42326C165.365 7.53846 165.375 7.65526 165.375 7.7723ZM166.053 5.26902H168.904V5.97402H166.824V7.24902H168.719V7.93902H166.824V9.21402H168.904V9.91902H166.053V5.26902ZM166.207 5.41902V9.76902H168.75V9.36402H166.67V7.78902H168.565V7.39902H166.67V5.82402H168.75V5.41902H166.207ZM169.389 5.26902H172.756V5.97402H171.43V9.91902H170.683V5.97402H169.389V5.26902ZM169.543 5.41902V5.82402H170.837V9.76902H171.276V5.82402H172.601V5.41902H169.543ZM174.866 5.26902H175.614V9.91902H174.866V5.26902ZM175.02 5.41902V9.76902H175.46V5.41902H175.02ZM176.207 5.26902H179.535V5.97402H178.248V9.91902H177.501V5.97402H176.207V5.26902ZM176.361 5.41902V5.82402H177.655V9.76902H178.094V5.82402H179.381V5.41902H176.361ZM186.915 5.26902H187.759L189.889 8.58511V5.26902H190.636V9.91902H189.9L187.67 6.43849V9.91902H186.915V5.26902ZM187.069 5.41902V9.76902H187.516V5.91456L189.985 9.76902H190.482V5.41902H190.043V9.10794L187.673 5.41902H187.069ZM182.469 6.25088C182.817 5.91354 183.288 5.72414 183.78 5.72414C184.271 5.72414 184.742 5.91354 185.09 6.25088L185.092 6.25357C185.434 6.6206 185.624 7.09848 185.624 7.59402C185.624 8.08957 185.434 8.56738 185.092 8.93441L185.09 8.93723C184.742 9.27457 184.271 9.4639 183.78 9.4639C183.288 9.4639 182.817 9.2745 182.469 8.93717L182.524 8.88402L182.467 8.93441C182.125 8.56738 181.935 8.08957 181.935 7.59402C181.935 7.09848 182.125 6.62067 182.467 6.25363L182.469 6.25088ZM182.58 8.83223C182.898 9.14073 183.33 9.3139 183.78 9.3139C184.229 9.3139 184.661 9.14073 184.979 8.83223C185.295 8.49298 185.47 8.05168 185.47 7.59402C185.47 7.13637 185.295 6.69507 184.979 6.35582C184.661 6.04732 184.229 5.87414 183.78 5.87414C183.33 5.87414 182.898 6.04732 182.58 6.35582C182.264 6.69507 182.089 7.13637 182.089 7.59402C182.089 8.05168 182.264 8.49298 182.58 8.83223Z" fill="white"/>
<path d="M136.858 5.70216C136.607 5.99549 136.48 6.37101 136.504 6.75216V23.3422C136.48 23.7233 136.607 24.0988 136.858 24.3922L136.912 24.4447L146.457 15.1597V14.9422L136.912 5.64966L136.858 5.70216Z" fill="url(#paint0_linear_32_318)"/>
<path d="M149.615 18.2572L146.457 15.1597V14.9422L149.615 11.8372L149.685 11.8747L153.467 13.9672C154.546 14.5597 154.546 15.5347 153.467 16.1347L149.7 18.2197L149.615 18.2572Z" fill="url(#paint1_linear_32_318)"/>
<path d="M149.708 18.2121L146.457 15.0471L136.858 24.3921C137.078 24.5803 137.358 24.6877 137.651 24.6959C137.943 24.7042 138.23 24.6126 138.46 24.4371L149.716 18.2121" fill="url(#paint2_linear_32_318)"/>
<path d="M149.708 11.8822L138.453 5.65716C138.222 5.48167 137.936 5.39012 137.643 5.39834C137.35 5.40655 137.07 5.51402 136.85 5.70216L146.457 15.0472L149.708 11.8822Z" fill="url(#paint3_linear_32_318)"/>
<path opacity="0.2" d="M149.615 18.1447L138.453 24.3322C138.23 24.494 137.96 24.5815 137.682 24.5815C137.405 24.5815 137.134 24.494 136.912 24.3322L136.858 24.3847L136.912 24.4372C137.134 24.6002 137.404 24.6884 137.682 24.6884C137.96 24.6884 138.231 24.6002 138.453 24.4372L149.708 18.2122L149.615 18.1447Z" fill="black"/>
<path opacity="0.12" d="M136.858 24.2871C136.607 23.9938 136.48 23.6183 136.504 23.2371V23.3496C136.48 23.7308 136.607 24.1063 136.858 24.3996L136.912 24.3471L136.858 24.2871ZM153.467 16.0221L149.615 18.1446L149.685 18.2121L153.467 16.1271C153.682 16.029 153.866 15.8774 154.001 15.6878C154.137 15.4982 154.218 15.2772 154.238 15.0471C154.194 15.2561 154.102 15.4527 153.969 15.6217C153.835 15.7908 153.664 15.9277 153.467 16.0221Z" fill="black"/>
<path opacity="0.25" d="M138.453 5.76183L153.467 14.0718C153.663 14.1662 153.835 14.3032 153.969 14.4722C154.102 14.6412 154.194 14.8378 154.237 15.0468C154.218 14.8168 154.136 14.5958 154.001 14.4061C153.866 14.2165 153.682 14.065 153.467 13.9668L138.453 5.65683C137.374 5.06433 136.496 5.55933 136.496 6.75933V6.87183C136.519 5.66433 137.382 5.16933 138.453 5.76183Z" fill="white"/>
<defs>
<linearGradient id="paint0_linear_32_318" x1="145.609" y1="6.57966" x2="133.029" y2="19.5018" gradientUnits="userSpaceOnUse">
<stop stop-color="#00A0FF"/>
<stop offset="0.01" stop-color="#00A1FF"/>
<stop offset="0.26" stop-color="#00BEFF"/>
<stop offset="0.51" stop-color="#00D2FF"/>
<stop offset="0.76" stop-color="#00DFFF"/>
<stop offset="1" stop-color="#00E3FF"/>
</linearGradient>
<linearGradient id="paint1_linear_32_318" x1="154.877" y1="15.0472" x2="136.242" y2="15.0472" gradientUnits="userSpaceOnUse">
<stop stop-color="#FFE000"/>
<stop offset="0.41" stop-color="#FFBD00"/>
<stop offset="0.78" stop-color="#FFA500"/>
<stop offset="1" stop-color="#FF9C00"/>
</linearGradient>
<linearGradient id="paint2_linear_32_318" x1="147.944" y1="16.7721" x2="130.88" y2="34.292" gradientUnits="userSpaceOnUse">
<stop stop-color="#FF3A44"/>
<stop offset="1" stop-color="#C31162"/>
</linearGradient>
<linearGradient id="paint3_linear_32_318" x1="134.439" y1="0.182156" x2="142.056" y2="8.00631" gradientUnits="userSpaceOnUse">
<stop stop-color="#32A071"/>
<stop offset="0.07" stop-color="#2DA771"/>
<stop offset="0.48" stop-color="#15CF74"/>
<stop offset="0.8" stop-color="#06E775"/>
<stop offset="1" stop-color="#00F076"/>
</linearGradient>
</defs>
</svg>
